<svg width="24" height="24" viewBox="0 0 24 24" fill="none" xmlns="http://www.w3.org/2000/svg">
    <path d="M4 8.98533L11.7484 13.295C11.8261 13.3382 11.9124 13.3608 12 13.3608C12.0876 13.3608 12.1739 13.3382 12.2516 13.295L20 8.98611V16.4722C20 17.1179 19.7691 17.7391 19.3544 18.2084C18.9398 18.6777 18.373 18.9596 17.7702 18.9961L17.6364 19H6.36364C5.7599 19 5.17903 18.753 4.7402 18.3096C4.30136 17.8662 4.03782 17.26 4.00364 16.6153L4 16.4722V8.98533ZM6.36364 5H17.6364C18.2401 4.99996 18.821 5.24699 19.2598 5.69041C19.6986 6.13384 19.9622 6.74004 19.9964 7.38467L20 7.52778V7.67089L12 12.1198L4 7.67089V7.52778C3.99996 6.88212 4.23095 6.26091 4.64558 5.7916C5.06021 5.32229 5.62705 5.04044 6.22982 5.00389L6.36364 5H17.6364H6.36364Z" fill="black"/>
</svg>
